# xmcd
#
# Track frame offsets:
# 150
# 14701
# 30107
# 45762
# 59052
# 74063
# 88265
# 102107
# 117153
# 132061
# 145289
# 161691
# 178541
#
# Disc length: 2552 seconds
#
#
# Revision: 0
# Processed by: cddbd v1.5.2PL0 Copyright (c) Steve Scherf et al.
# Submitted via: FreeRIP 2.945 
#
DISCID=b009f60d
DTITLE=Alisson e Ryan - Ponte Aérea
DYEAR=1900
DGENRE=Sertanejo
TTITLE0=Agente Tem Que Conversar
TTITLE1=Aqui de Novo
TTITLE2=É Sempre Assim
TTITLE3=Ela Nem Aí
TTITLE4=Garota Bandida
TTITLE5=Jogo da Vida
TTITLE6=Mexe Comigo
TTITLE7=O Que Tiver de Vir Virá
TTITLE8=Peixe Carimbado
TTITLE9=Pertinho de Você
TTITLE10=Ponte Aérea
TTITLE11=Quando Olhar Pra Trás
TTITLE12=Viro Leão
EXTD=
EXTT0=
EXTT1=
EXTT2=
EXTT3=
EXTT4=
EXTT5=
EXTT6=
EXTT7=
EXTT8=
EXTT9=
EXTT10=
EXTT11=
EXTT12=
PLAYORDER=
